<mxfile host="app.diagrams.net" agent="Mozilla/5.0 (Windows NT 10.0; Win64; x64) AppleWebKit/537.36 (KHTML, like Gecko) Chrome/126.0.0.0 Safari/537.36" version="24.7.4">
  <diagram name="Halaman-1" id="Dm3Zqgzt0psHoxQfFA3l">
    <mxGraphModel dx="1593" dy="909" grid="1" gridSize="10" guides="1" tooltips="1" connect="1" arrows="1" fold="1" page="1" pageScale="1" pageWidth="827" pageHeight="1169" math="0" shadow="0">
      <root>
        <mxCell id="0" />
        <mxCell id="1" parent="0" />
        <mxCell id="xzj_mD31JQDkTMwZgoWx-1" value="" style="strokeWidth=1;html=1;shape=mxgraph.flowchart.document2;whiteSpace=wrap;size=0.25;fontStyle=0;" vertex="1" parent="1">
          <mxGeometry x="215" y="110" width="150" height="170" as="geometry" />
        </mxCell>
        <mxCell id="xzj_mD31JQDkTMwZgoWx-2" value="" style="strokeWidth=1;html=1;shape=mxgraph.flowchart.document2;whiteSpace=wrap;size=0.25;" vertex="1" parent="1">
          <mxGeometry x="440" y="110" width="150" height="170" as="geometry" />
        </mxCell>
        <mxCell id="xzj_mD31JQDkTMwZgoWx-4" value="" style="rounded=1;whiteSpace=wrap;html=1;" vertex="1" parent="1">
          <mxGeometry x="230" y="410" width="120" height="60" as="geometry" />
        </mxCell>
        <mxCell id="xzj_mD31JQDkTMwZgoWx-5" value="" style="rounded=1;whiteSpace=wrap;html=1;" vertex="1" parent="1">
          <mxGeometry x="455" y="410" width="120" height="60" as="geometry" />
        </mxCell>
        <mxCell id="xzj_mD31JQDkTMwZgoWx-6" value="" style="ellipse;whiteSpace=wrap;html=1;aspect=fixed;" vertex="1" parent="1">
          <mxGeometry x="60" y="410" width="60" height="60" as="geometry" />
        </mxCell>
        <mxCell id="xzj_mD31JQDkTMwZgoWx-7" value="" style="ellipse;whiteSpace=wrap;html=1;aspect=fixed;" vertex="1" parent="1">
          <mxGeometry x="60" y="555" width="60" height="60" as="geometry" />
        </mxCell>
        <mxCell id="xzj_mD31JQDkTMwZgoWx-8" value="" style="rounded=1;whiteSpace=wrap;html=1;" vertex="1" parent="1">
          <mxGeometry x="230" y="555" width="120" height="60" as="geometry" />
        </mxCell>
        <mxCell id="xzj_mD31JQDkTMwZgoWx-9" value="" style="rounded=1;whiteSpace=wrap;html=1;" vertex="1" parent="1">
          <mxGeometry x="455" y="555" width="120" height="60" as="geometry" />
        </mxCell>
        <mxCell id="xzj_mD31JQDkTMwZgoWx-10" value="" style="strokeWidth=1;html=1;shape=mxgraph.flowchart.document2;whiteSpace=wrap;size=0.25;" vertex="1" parent="1">
          <mxGeometry x="215" y="720" width="150" height="170" as="geometry" />
        </mxCell>
        <mxCell id="xzj_mD31JQDkTMwZgoWx-11" value="" style="strokeWidth=1;html=1;shape=mxgraph.flowchart.document2;whiteSpace=wrap;size=0.25;" vertex="1" parent="1">
          <mxGeometry x="440" y="720" width="150" height="170" as="geometry" />
        </mxCell>
        <mxCell id="xzj_mD31JQDkTMwZgoWx-12" value="" style="endArrow=classic;html=1;rounded=0;exitX=0.5;exitY=0;exitDx=0;exitDy=0;entryX=0.496;entryY=0.892;entryDx=0;entryDy=0;entryPerimeter=0;" edge="1" parent="1" source="xzj_mD31JQDkTMwZgoWx-4" target="xzj_mD31JQDkTMwZgoWx-1">
          <mxGeometry width="50" height="50" relative="1" as="geometry">
            <mxPoint x="289.5" y="400" as="sourcePoint" />
            <mxPoint x="289.5" y="290" as="targetPoint" />
          </mxGeometry>
        </mxCell>
        <mxCell id="xzj_mD31JQDkTMwZgoWx-13" value="" style="endArrow=classic;html=1;rounded=0;exitX=0.5;exitY=0;exitDx=0;exitDy=0;entryX=0.493;entryY=0.894;entryDx=0;entryDy=0;entryPerimeter=0;" edge="1" parent="1" target="xzj_mD31JQDkTMwZgoWx-2">
          <mxGeometry width="50" height="50" relative="1" as="geometry">
            <mxPoint x="515" y="410" as="sourcePoint" />
            <mxPoint x="514.5" y="290" as="targetPoint" />
          </mxGeometry>
        </mxCell>
        <mxCell id="xzj_mD31JQDkTMwZgoWx-15" value="" style="endArrow=classic;html=1;rounded=0;entryX=0;entryY=0.5;entryDx=0;entryDy=0;" edge="1" parent="1" target="xzj_mD31JQDkTMwZgoWx-4">
          <mxGeometry width="50" height="50" relative="1" as="geometry">
            <mxPoint x="120" y="439.5" as="sourcePoint" />
            <mxPoint x="210" y="440" as="targetPoint" />
            <Array as="points" />
          </mxGeometry>
        </mxCell>
        <mxCell id="xzj_mD31JQDkTMwZgoWx-16" value="" style="endArrow=classic;html=1;rounded=0;entryX=0;entryY=0.5;entryDx=0;entryDy=0;" edge="1" parent="1" target="xzj_mD31JQDkTMwZgoWx-5">
          <mxGeometry width="50" height="50" relative="1" as="geometry">
            <mxPoint x="350" y="439.5" as="sourcePoint" />
            <mxPoint x="440" y="440" as="targetPoint" />
            <Array as="points" />
          </mxGeometry>
        </mxCell>
        <mxCell id="xzj_mD31JQDkTMwZgoWx-18" value="" style="endArrow=none;html=1;rounded=0;" edge="1" parent="1">
          <mxGeometry width="50" height="50" relative="1" as="geometry">
            <mxPoint x="575" y="440" as="sourcePoint" />
            <mxPoint x="630" y="440" as="targetPoint" />
          </mxGeometry>
        </mxCell>
        <mxCell id="xzj_mD31JQDkTMwZgoWx-19" value="" style="endArrow=none;html=1;rounded=0;" edge="1" parent="1">
          <mxGeometry width="50" height="50" relative="1" as="geometry">
            <mxPoint x="630" y="440" as="sourcePoint" />
            <mxPoint x="630" y="585" as="targetPoint" />
            <Array as="points">
              <mxPoint x="630" y="529.5" />
              <mxPoint x="630" y="569.5" />
            </Array>
          </mxGeometry>
        </mxCell>
        <mxCell id="xzj_mD31JQDkTMwZgoWx-20" value="" style="endArrow=classic;html=1;rounded=0;entryX=0.999;entryY=0.409;entryDx=0;entryDy=0;entryPerimeter=0;" edge="1" parent="1">
          <mxGeometry width="50" height="50" relative="1" as="geometry">
            <mxPoint x="630.12" y="585.23" as="sourcePoint" />
            <mxPoint x="574.9999999999999" y="584.77" as="targetPoint" />
            <Array as="points">
              <mxPoint x="600.12" y="585.23" />
              <mxPoint x="590.12" y="585.23" />
            </Array>
          </mxGeometry>
        </mxCell>
        <mxCell id="xzj_mD31JQDkTMwZgoWx-21" value="" style="endArrow=classic;html=1;rounded=0;exitX=0;exitY=0.5;exitDx=0;exitDy=0;entryX=1;entryY=0.5;entryDx=0;entryDy=0;" edge="1" parent="1" source="xzj_mD31JQDkTMwZgoWx-9" target="xzj_mD31JQDkTMwZgoWx-8">
          <mxGeometry width="50" height="50" relative="1" as="geometry">
            <mxPoint x="410" y="580" as="sourcePoint" />
            <mxPoint x="460" y="530" as="targetPoint" />
          </mxGeometry>
        </mxCell>
        <mxCell id="xzj_mD31JQDkTMwZgoWx-22" value="" style="endArrow=classic;html=1;rounded=0;exitX=0;exitY=0.5;exitDx=0;exitDy=0;entryX=1;entryY=0.5;entryDx=0;entryDy=0;" edge="1" parent="1" target="xzj_mD31JQDkTMwZgoWx-7">
          <mxGeometry width="50" height="50" relative="1" as="geometry">
            <mxPoint x="230" y="584" as="sourcePoint" />
            <mxPoint x="125" y="584" as="targetPoint" />
          </mxGeometry>
        </mxCell>
        <mxCell id="xzj_mD31JQDkTMwZgoWx-23" value="" style="endArrow=classic;html=1;rounded=0;entryX=0.534;entryY=-0.005;entryDx=0;entryDy=0;entryPerimeter=0;" edge="1" parent="1" target="xzj_mD31JQDkTMwZgoWx-11">
          <mxGeometry width="50" height="50" relative="1" as="geometry">
            <mxPoint x="520" y="615" as="sourcePoint" />
            <mxPoint x="520" y="710" as="targetPoint" />
          </mxGeometry>
        </mxCell>
        <mxCell id="xzj_mD31JQDkTMwZgoWx-24" value="" style="endArrow=classic;html=1;rounded=0;entryX=0.534;entryY=-0.005;entryDx=0;entryDy=0;entryPerimeter=0;" edge="1" parent="1">
          <mxGeometry width="50" height="50" relative="1" as="geometry">
            <mxPoint x="289.77" y="615" as="sourcePoint" />
            <mxPoint x="289.77" y="719" as="targetPoint" />
          </mxGeometry>
        </mxCell>
        <mxCell id="xzj_mD31JQDkTMwZgoWx-26" value="Extreme Programming" style="swimlane;" vertex="1" parent="1">
          <mxGeometry x="40" y="30" width="690" height="950" as="geometry" />
        </mxCell>
      </root>
    </mxGraphModel>
  </diagram>
</mxfile>
